<?xml version="1.0" encoding="UTF-8"?>
<!DOCTYPE svg PUBLIC "-//W3C//DTD SVG 1.1//EN" "http://www.w3.org/Graphics/SVG/1.1/DTD/svg11.dtd">
<!-- Creator: CorelDRAW X7 -->
<svg xmlns="http://www.w3.org/2000/svg" xml:space="preserve" width="100%" version="1.1" style="shape-rendering:geometricPrecision; text-rendering:geometricPrecision; image-rendering:optimizeQuality; fill-rule:evenodd; clip-rule:evenodd"
viewBox="0 0 6667 6667"
 xmlns:xlink="http://www.w3.org/1999/xlink">
 <defs>
  <style type="text/css">
   <![CDATA[
    .fil0 {fill:#FF5409}
   ]]>
  </style>
 </defs>
 <g id="Layer_x0020_1">
  <metadata id="CorelCorpID_0Corel-Layer"/>
  <g id="_1929949899136">
   <path class="fil0" d="M787 3711c187,-159 485,-572 775,-631 212,-44 415,39 537,140 130,106 187,263 209,495 392,-1 635,257 643,643 413,24 626,237 647,648 555,25 516,438 849,390 155,-22 289,-179 251,-364 -27,-132 -186,-246 -283,-345l-938 -943c-85,-91 -293,-229 -224,-375 30,-63 112,-108 197,-74 39,16 139,124 169,154 108,110 205,204 314,314l945 936c265,173 719,-144 312,-540l-1267 -1262c-121,-153 75,-360 249,-191 422,407 834,842 1251,1258 376,374 734,-97 506,-353 -207,-232 -804,-792 -1092,-1095l-794 -800c-344,142 -803,1234 -1774,954 -191,-55 -459,-220 -561,-381l715 -721c126,-125 236,-237 362,-361 80,-79 328,-300 360,-387 -224,-164 -269,-245 -589,-377 -777,-322 -1623,-61 -2122,523 -494,578 -506,1515 -92,2224 101,173 321,443 445,521z"/>
   <path class="fil0" d="M2156 2289c268,104 413,183 731,46 226,-97 757,-671 954,-870 69,-70 145,-190 290,-88l2074 2070c155,-132 332,-533 384,-812 176,-954 -406,-1956 -1443,-2124 -740,-120 -1429,188 -1791,562 -157,163 -1160,1125 -1199,1216z"/>
   <path class="fil0" d="M1613 3390c-156,49 -427,360 -551,486 -260,265 -20,630 285,530 127,-41 431,-385 535,-490 254,-256 18,-614 -269,-526z"/>
   <path class="fil0" d="M2920 4680c-162,42 -451,377 -564,490 -238,239 -62,599 253,539 127,-24 451,-389 555,-492 302,-301 -7,-600 -244,-537z"/>
   <path class="fil0" d="M2272 4032c-132,34 -218,149 -295,227 -212,214 -474,389 -355,636 50,104 189,207 356,163 122,-33 442,-396 537,-489 309,-302 -11,-597 -243,-537z"/>
   <path class="fil0" d="M3566 5327c-155,40 -431,360 -552,482 -258,259 -58,620 258,544 98,-24 225,-178 280,-234 232,-233 472,-384 351,-635 -46,-97 -178,-198 -337,-157z"/>
  </g>
 </g>
</svg>
