<?xml version="1.0" encoding="UTF-8"?>
<!DOCTYPE svg PUBLIC "-//W3C//DTD SVG 1.1//EN" "http://www.w3.org/Graphics/SVG/1.1/DTD/svg11.dtd">
<!-- Creator: CorelDRAW X7 -->
<svg xmlns="http://www.w3.org/2000/svg" xml:space="preserve" width="100%" version="1.1" style="shape-rendering:geometricPrecision; text-rendering:geometricPrecision; image-rendering:optimizeQuality; fill-rule:evenodd; clip-rule:evenodd"
viewBox="0 0 6667 6667"
 xmlns:xlink="http://www.w3.org/1999/xlink">
 <defs>
  <style type="text/css">
   <![CDATA[
    .fil0 {fill:#FF5409}
   ]]>
  </style>
 </defs>
 <g id="Layer_x0020_1">
  <metadata id="CorelCorpID_0Corel-Layer"/>
  <g id="_1930186913264">
   <path class="fil0" d="M551 790c-22,31 -41,42 -63,73l-49 75 -7 550c0,717 0,1417 0,2095 0,363 -1,581 103,941 52,179 129,336 216,483 42,71 163,243 222,298 68,64 45,54 85,93 599,578 1255,771 2005,1133 334,161 201,161 470,32 81,-39 163,-76 243,-113 324,-150 625,-270 954,-440 611,-317 1139,-722 1376,-1418 137,-401 130,-794 124,-1265 -8,-683 1,-1404 1,-2094 0,-102 19,-242 -27,-320 -12,-21 -25,-37 -37,-52 -12,-16 -28,-34 -42,-46 -242,-217 -858,-300 -1214,-361 -371,-64 -783,-147 -1128,-267 -117,-40 -264,-92 -378,-146 -67,-32 -60,-44 -128,-10 -154,77 -335,136 -510,191 -631,198 -1124,226 -1720,373 -125,31 -277,75 -389,134 -31,17 -89,57 -107,61zm2638 735c-172,32 -226,10 -480,76 -148,38 -284,82 -422,127 -166,54 -771,303 -804,6 22,-14 50,-3 71,-24 53,-51 -89,-120 -106,5 -8,58 13,100 42,134 31,34 80,44 112,72 -67,195 -345,813 -450,1062 -39,94 -72,169 -111,262 -42,97 -73,106 57,255 308,354 868,314 1126,-105 33,-54 20,-59 -7,-120 -63,-146 -554,-1278 -568,-1350 585,35 959,-267 1250,-187 69,18 113,49 139,108 47,103 3,78 107,134 -21,89 9,65 62,88 -3,83 -30,182 -39,276 -9,102 -21,189 -28,295 -28,413 -45,813 -49,1229 -1,166 16,493 -5,635 -58,20 -150,0 -219,9 -105,13 -93,73 -141,91 -79,0 -177,-10 -239,20 -46,22 -111,77 -101,155l1897 1c3,-73 -60,-132 -101,-153 -65,-34 -163,-24 -246,-23 -45,-18 -36,-75 -131,-90 -67,-11 -157,1 -230,-5 -21,-541 9,-1332 -51,-1872 -10,-96 -17,-191 -28,-284 -11,-92 -37,-204 -40,-284 43,-19 91,-5 60,-87 90,-46 66,-31 106,-129 84,-206 403,-112 551,-67 395,119 447,120 842,140 -4,35 -486,1154 -561,1329 -19,46 -47,83 -26,122 104,198 337,361 600,363 276,3 483,-139 608,-335 41,-64 21,-80 -8,-146l-341 -799c-74,-184 -170,-369 -226,-538 30,-26 74,-33 107,-67 30,-31 53,-73 48,-130 -3,-48 -42,-99 -93,-74 -16,8 -55,52 14,72l17 4c25,6 8,-3 25,8 -30,297 -641,47 -803,-6 -260,-85 -383,-124 -651,-176 -81,-16 -171,-13 -251,-27 -23,-60 3,-45 -59,-155 -21,-38 -52,-101 -79,-139 -27,13 -60,89 -85,133 -64,114 -37,95 -62,161z"/>
   <path class="fil0" d="M4437 3349l592 0 1 -1386c-33,38 -457,1050 -519,1202 -23,55 -62,128 -74,184z"/>
   <path class="fil0" d="M5052 3349l594 0c-35,-105 -96,-231 -142,-340l-426 -1000c-14,-19 -8,-12 -25,-26l-1 1366z"/>
   <path class="fil0" d="M1017 3346l592 3 2 -1366c-3,2 -7,2 -8,7 -2,8 -9,1 -25,32l-272 643c-65,153 -247,559 -289,681z"/>
   <polygon class="fil0" points="1632,3349 2226,3349 1640,1961 "/>
  </g>
 </g>
</svg>
