<?xml version="1.0" encoding="UTF-8"?>
<!DOCTYPE svg PUBLIC "-//W3C//DTD SVG 1.1//EN" "http://www.w3.org/Graphics/SVG/1.1/DTD/svg11.dtd">
<!-- Creator: CorelDRAW X7 -->
<svg xmlns="http://www.w3.org/2000/svg" xml:space="preserve" width="8.26389in" height="5.81944in" version="1.1" style="shape-rendering:geometricPrecision; text-rendering:geometricPrecision; image-rendering:optimizeQuality; fill-rule:evenodd; clip-rule:evenodd"
viewBox="0 0 8264 5819"
 xmlns:xlink="http://www.w3.org/1999/xlink">
 <defs>
  <style type="text/css">
   <![CDATA[
    .fil0 {fill:#FF5409}
    .fil1 {fill:#006153;fill-rule:nonzero}
    .fil3 {fill:#8C8D8F;fill-rule:nonzero}
    .fil2 {fill:#FF5409;fill-rule:nonzero}
    .fil4 {fill:url(#id0)}
   ]]>
  </style>
  <radialGradient id="id0" gradientUnits="userSpaceOnUse" gradientTransform="matrix(1.01016 -1.00319 1.01016 1.0032 -957 1929)" cx="1925.66" cy="928.217" r="600.067" fx="1925.66" fy="928.217">
   <stop offset="0" style="stop-opacity:1; stop-color:#42998C"/>
   <stop offset="1" style="stop-opacity:1; stop-color:#006153"/>
  </radialGradient>
 </defs>
 <g id="Layer_x0020_1">
  <metadata id="CorelCorpID_0Corel-Layer"/>
  <path class="fil0" d="M3520 143c-404,297 -606,445 -606,445 415,1549 -1626,1860 -1913,778 0,0 -270,0 -809,0 253,752 708,1204 1365,1353 -8,874 -12,1312 -12,1312 530,-5 796,-7 796,-7 -2,-890 -3,-1336 -3,-1336 909,-106 1772,-1211 1182,-2545z"/>
  <path class="fil1" d="M3514 3392c0,240 -93,345 -220,345 -123,0 -220,-103 -220,-345 0,-242 97,-346 220,-346 123,0 220,104 220,346zm411 0c0,-387 -253,-637 -631,-637 -378,0 -630,250 -630,637 0,386 252,637 630,637 378,0 631,-248 631,-637zm986 613l376 0 0 -1226 -397 0 0 818c-67,58 -166,119 -242,119 -104,0 -119,-69 -119,-208l0 -729 -397 0 0 876c0,223 123,374 367,374 162,0 291,-69 412,-156l0 132zm1376 -294c-50,9 -97,18 -132,18 -93,0 -127,-52 -127,-115l0 -496 259 0 0 -281 -259 0 0 -269 -398 -1 0 270 -187 0 0 281 187 0 0 503c0,276 78,408 456,408 61,0 149,-11 201,-22l0 -296zm1358 -583c0,-222 -123,-373 -367,-373 -162,0 -281,62 -391,142l0 -330 -397 0 0 1438 397 0 0 -818c67,-59 166,-119 242,-119 104,0 119,69 119,207l0 730 397 0 0 -877z"/>
  <path class="fil1" d="M2103 4954c-58,84 -123,136 -221,136 -159,0 -272,-144 -272,-379 0,-236 109,-380 269,-380 89,0 154,42 207,116l80 -59c-69,-95 -154,-151 -286,-151 -232,0 -386,190 -386,479 0,276 140,469 388,469 123,0 225,-55 299,-167l-78 -64zm820 -238c0,227 -103,374 -260,374 -154,0 -257,-146 -257,-379 0,-236 101,-380 257,-380 157,0 260,145 260,385zm115 -3c0,-287 -145,-476 -374,-476 -231,0 -374,188 -374,479 0,277 146,469 374,469 227,0 374,-192 374,-472zm807 -458l-104 0 0 718 -425 -718 -106 0 0 912 105 0 0 -718 423 718 107 0 0 -912zm799 912l81 0 0 -481 -336 0 0 88 227 0 0 120c0,128 -119,196 -207,196 -169,0 -276,-144 -276,-379 0,-236 111,-380 272,-380 89,0 155,36 209,110l82 -59c-69,-94 -158,-145 -290,-145 -233,0 -388,190 -388,479 0,276 139,469 380,469 88,0 178,-40 234,-120l12 102zm391 -502l0 -321 183 0c135,0 194,67 194,156 0,82 -47,165 -165,165l-212 0zm321 74c109,-34 171,-122 171,-244 0,-138 -92,-240 -297,-240l-304 0 0 912 109 0 0 -414 214 0 181 414 126 0 -200 -428zm902 339l-429 0 0 -349 347 0 0 -89 -347 0 0 -296 413 0 0 -89 -523 0 0 912 539 0 0 -89zm389 -461c-90,-38 -143,-73 -143,-147 0,-93 78,-142 166,-142 78,0 153,44 206,104l66 -70c-65,-79 -158,-125 -272,-125 -157,0 -281,84 -281,242 0,132 89,184 201,234l88 38c101,45 165,85 165,182 0,108 -98,161 -181,161 -79,0 -164,-42 -228,-114l-68 72c73,80 180,133 297,133 154,0 295,-87 295,-267 0,-149 -97,-209 -224,-264l-87 -37zm684 0c-90,-38 -143,-73 -143,-147 0,-93 78,-142 166,-142 78,0 153,44 206,104l66 -70c-65,-79 -158,-125 -272,-125 -157,0 -281,84 -281,242 0,132 89,184 201,234l88 38c101,45 165,85 165,182 0,108 -98,161 -181,161 -79,0 -164,-42 -228,-114l-67 72c72,80 179,133 296,133 154,0 295,-87 295,-267 0,-149 -97,-209 -224,-264l-87 -37z"/>
  <path class="fil1" d="M3846 2230l90 -264 92 264 -182 0zm126 -342l-69 0 -190 545 67 0 50 -150 214 0 53 150 69 0 -194 -545zm574 490l-248 0 0 -490 -65 0 0 545 313 0 0 -55zm396 0l-247 0 0 -490 -66 0 0 545 313 0 0 -55zm365 -148l90 -264 92 264 -182 0zm126 -342l-69 0 -190 545 66 0 51 -150 214 0 52 150 70 0 -194 -545zm581 0l-320 0 0 545 66 0 0 -253 222 0 0 -53 -222 0 0 -186 254 0 0 -53zm153 245l0 -192 110 0c80,0 115,40 115,93 0,49 -28,99 -98,99l-127 0zm192 44c65,-20 103,-73 103,-146 0,-82 -56,-143 -179,-143l-181 0 0 545 65 0 0 -247 128 0 108 247 75 0 -119 -256zm222 -289l0 545 65 0 0 -545 -65 0zm536 418c-35,50 -74,81 -132,81 -95,0 -163,-86 -163,-226 0,-142 65,-228 161,-228 53,0 92,25 124,69l47 -35c-41,-56 -91,-90 -170,-90 -139,0 -231,114 -231,287 0,164 84,280 232,280 73,0 134,-33 178,-100l-46 -38zm209 -76l90 -264 92 264 -182 0zm126 -342l-70 0 -189 545 66 0 51 -150 214 0 52 150 69 0 -193 -545z"/>
  <path class="fil1" d="M1602 5588l47 -139 49 139 -96 0zm66 -180l-36 0 -100 287 35 0 26 -79 113 0 28 79 36 0 -102 -287zm306 0l-168 0 0 287 34 0 0 -133 117 0 0 -28 -117 0 0 -98 134 0 0 -28zm81 129l0 -101 58 0c42,0 60,21 60,49 0,26 -14,52 -52,52l-66 0zm101 23c34,-10 54,-38 54,-76 0,-44 -29,-76 -94,-76l-96 0 0 287 35 0 0 -130 67 0 57 130 40 0 -63 -135zm117 -152l0 287 34 0 0 -287 -34 0zm282 220c-18,26 -39,43 -70,43 -50,0 -85,-45 -85,-119 0,-75 34,-120 85,-120 27,0 48,13 65,36l25 -18c-22,-30 -49,-48 -90,-48 -73,0 -122,60 -122,151 0,87 44,148 122,148 39,0 71,-18 94,-53l-24 -20zm110 -40l47 -139 49 139 -96 0zm66 -180l-36 0 -100 287 35 0 27 -79 112 0 28 79 36 0 -102 -287zm170 248l-41 0 0 39 41 0 0 -39zm0 -150l-41 0 0 39 41 0 0 -39z"/>
  <path class="fil2" d="M3590 5408l-34 0 -87 201 -85 -201 -36 0 0 287 32 0 0 -216 76 177 23 0 79 -178 0 217 32 0 0 -287zm229 0l-74 137 -73 -137 -39 0 96 173 0 114 34 0 0 -116 93 -171 -37 0zm388 0l-35 0 0 120 -130 0 0 -120 -35 0 0 287 35 0 0 -137 130 0 0 137 35 0 0 -287zm253 145c0,72 -32,118 -81,118 -49,0 -81,-46 -81,-119 0,-75 31,-120 81,-120 49,0 81,46 81,121zm37 -1c0,-90 -46,-150 -118,-150 -73,0 -118,59 -118,151 0,87 46,148 118,148 71,0 118,-61 118,-149zm297 -144l-34 0 -88 201 -85 -201 -36 0 0 287 33 0 0 -216 76 177 23 0 78 -178 0 217 33 0 0 -287zm236 259l-136 0 0 -110 110 0 0 -28 -110 0 0 -93 131 0 0 -28 -165 0 0 287 170 0 0 -28z"/>
  <path class="fil3" d="M5863 5408l-35 0 -87 201 -85 -201 -36 0 0 287 33 0 0 -216 75 177 23 0 79 -178 0 217 33 0 0 -287zm228 0l-73 137 -74 -137 -38 0 95 173 0 114 34 0 0 -116 93 -171 -37 0zm357 0l-168 0 0 287 34 0 0 -133 117 0 0 -28 -117 0 0 -98 134 0 0 -28zm241 0l-33 0 0 198c0,45 -32,64 -65,64 -35,0 -64,-21 -64,-67l0 -195 -34 0 0 195c0,70 47,97 98,97 48,0 98,-25 98,-94l0 -198zm237 0l-201 0 0 29 83 0 0 258 35 0 0 -258 83 0 0 -29zm233 0l-33 0 0 198c0,45 -32,64 -65,64 -35,0 -63,-21 -63,-67l0 -195 -35 0 0 195c0,70 48,97 98,97 49,0 98,-25 98,-94l0 -198zm98 129l0 -101 58 0c42,0 61,21 61,49 0,26 -15,52 -52,52l-67 0zm101 23c34,-10 54,-38 54,-76 0,-44 -29,-76 -94,-76l-95 0 0 287 34 0 0 -130 68 0 57 130 39 0 -63 -135zm284 107l-135 0 0 -110 109 0 0 -28 -109 0 0 -93 130 0 0 -28 -164 0 0 287 169 0 0 -28z"/>
  <path class="fil4" d="M1926 77c473,0 857,381 857,851 0,470 -384,852 -857,852 -474,0 -858,-382 -858,-852 0,-470 384,-851 858,-851l0 0zm418 1190c0,-1 0,-1 0,-1 0,0 0,0 0,1zm47 -70c0,-4 0,-9 -2,-13 -2,-5 -5,-9 -8,-15 0,-1 -3,-1 -4,1 -1,2 -3,4 -6,3 0,0 -2,1 -2,2 0,1 1,1 1,1 2,2 4,4 2,7 -1,1 -2,3 -2,4 0,1 0,2 -1,3 -1,0 -1,-1 -2,-2 0,0 -1,0 -1,0 -1,1 -1,2 -1,3 0,-1 0,-1 0,-2 -1,-1 0,-2 -1,-3 -1,0 -2,1 -3,1 -1,2 0,3 0,3 2,2 1,4 1,5 -1,-2 -3,-4 -5,-2 -1,2 -4,5 -4,8 1,4 -2,6 -4,8 -4,3 -7,6 -7,12 -2,-4 -2,-4 -6,-1 -4,3 -9,7 -15,6 -1,0 -2,0 -2,1 0,2 -2,1 -4,2 -1,0 -3,-1 -3,0 -3,3 -6,3 -9,3 -1,-1 -3,-1 -3,1 1,6 -2,10 -5,14 -3,3 -6,6 -3,10 0,1 0,1 0,2 -2,7 3,14 2,21l0 0c3,7 1,13 -4,19 -2,3 -5,6 -5,10 0,1 -1,3 -4,3 -1,0 -2,1 -2,2 -1,3 -2,5 -4,6 -1,2 -2,4 -2,6 1,2 1,5 1,8 0,3 1,5 3,7 2,2 2,6 1,7 -2,4 0,8 -2,12 0,2 0,4 2,5 1,1 1,2 1,3 0,5 5,9 9,10 2,0 3,1 4,3 3,3 10,3 13,1 4,-3 8,-4 13,-4 4,0 7,-1 9,-5 3,-4 4,-9 7,-13 1,-1 2,-3 2,-5 3,-7 5,-14 8,-21 5,-10 9,-19 13,-29 1,-3 4,-6 4,-9 2,-7 6,-13 9,-20 3,-7 6,-13 6,-21 0,-3 1,-6 4,-8 1,2 -1,3 0,4 2,1 3,-1 3,-2 1,-1 1,-2 1,-3 1,0 2,-1 0,-2 0,0 -1,0 -1,1 0,0 -1,1 -2,1 0,-1 1,-1 1,-2 1,-1 1,-2 1,-3 0,-4 -1,-8 -1,-12 -1,-2 -1,-4 1,-4 1,2 2,4 2,6 0,1 1,2 3,2 1,0 2,0 3,-2 2,-5 5,-9 2,-15 -3,-6 -2,-12 -2,-19zm-1005 -491l1 -13 -1 13zm33 -3l0 0zm12 12l-12 -12 12 12zm13 18l0 0zm4 60l-4 -60 4 60zm-5 -62l5 62 -5 -62zm27 -162l-27 162 27 -162zm1 0l0 0 0 0zm6 86l-6 -86 6 86zm45 0l-45 0 45 0zm-4 228l4 -228 -4 228zm12 -372l-12 372 12 -372zm-3 25l3 -25 -3 25zm18 261l-18 -261 18 261zm32 -300l0 0zm-13 267l13 -267 -13 267zm3 -59l0 0zm24 65l-24 -65 24 65zm0 -2l0 2 0 -2zm4 -19l-4 19 4 -19zm2 -1l-2 1 2 -1zm0 -264l0 264 0 -264zm3 -1l-3 1 3 -1zm41 -19l-41 19 41 -19zm-3 -19l3 19 -3 -19zm10 291l0 0zm1 -1l-1 1 1 -1zm2 -2l-2 2 2 -2zm-2 2l0 0 0 0zm-15 -316l15 316 -15 -316zm45 241l0 0zm2 -233l-2 233 2 -233zm1 -1l0 0zm41 403l0 0 0 0zm2 -161l-2 161 2 -161zm-2 176l2 -176 -2 176zm25 -196l-25 196 25 -196zm-7 6l7 -6 -7 6zm33 -218l0 0 0 0zm-1 0l1 0 -1 0zm6 35l0 0zm-2 -66l2 66 -2 -66zm-7 53l7 -53 -7 53zm0 -20l0 20 0 -20zm2 22l-2 -22 2 22zm10 13l0 0zm-15 -16l15 16 -15 -16zm27 136l0 0 0 0zm26 473l-26 -473 26 473zm49 114l-49 -114 49 114zm3 -233l0 0zm29 228l-29 -228 29 228zm89 -198l-89 198 89 -198zm24 357l-24 -357 24 357zm98 -716l-98 716 98 -716zm-7 417l7 -417 -7 417zm-5 -407l5 407 -5 -407zm13 -115l-13 115 13 -115zm1 499l-1 -499 1 499zm5 -491l0 0 0 0zm-32 740l0 0zm-2 -282l2 282 -2 -282zm51 144l-51 -144 51 144zm6 2l-6 -2 6 2zm72 -390l-72 390 72 -390zm21 109l-21 -109 21 109zm-848 -151l0 1 -1 -1 1 0zm43 21l0 0 0 0 0 0zm141 -287l0 0 0 0 0 0zm105 233l0 0 0 0 0 0zm102 -190l0 0 0 0 0 0zm339 52c0,2 0,3 1,4l0 0c-1,-1 -1,-2 -2,-3 -1,-1 -2,-2 -2,-4l0 0 3 3zm298 280c0,-1 -1,-1 -2,-1l-1 0c0,-2 0,-3 0,-5 -1,-3 -2,-6 0,-10 0,-1 2,-4 -1,-7 -3,-1 -5,-2 -8,-1 -3,0 -5,2 -6,4 0,0 -1,1 -1,1 -2,1 -5,2 -8,3 -2,0 -5,1 -8,3 -2,1 -5,1 -9,0 -3,0 -5,1 -7,2 -4,2 -6,2 -8,1 -2,-1 -4,-1 -5,0 -2,1 -3,2 -4,3 -2,1 -4,3 -6,4 -2,1 -3,1 -5,0 -4,-1 -7,-2 -10,-1 -2,2 -4,3 -6,4l-1 1c-4,2 -7,3 -10,3 -5,-1 -10,-5 -13,-10 0,-1 -1,-1 -1,-2 -1,-2 -3,-5 -6,-6 -1,0 -2,-1 -2,-1 1,0 1,-1 2,-1 3,-1 4,-3 4,-4 0,-6 -6,-15 -11,-17 0,0 0,0 -1,0 -4,-1 -6,-3 -7,-6 0,-1 -1,-2 -2,-3 0,0 0,0 -1,-1 -1,-2 -3,-3 -5,-4 -2,-1 -4,-2 -5,-4 -2,-3 -3,-6 -7,-7 -3,-1 -5,-2 -7,-3 -1,-1 -3,-2 -4,-3 0,0 0,0 -1,0l0 -1c-2,-3 -5,-6 -9,-5 -2,1 -3,-1 -3,-1l0 0c0,-2 -1,-3 -3,-5 -1,-1 -2,-2 -2,-4 0,-5 -2,-10 -4,-15l0 0c-3,-7 -5,-14 -12,-18l-1 0c-1,-1 -2,-1 -3,-3 -1,-3 -4,-4 -7,-5 -2,0 -3,-1 -3,-2 0,-1 0,-2 -1,-2 -1,-3 -2,-5 -2,-8 0,-3 -1,-6 -1,-9 -1,-4 -2,-9 -1,-14 0,-1 -1,-2 -1,-3 -3,-3 -6,-6 -5,-11 0,-1 -1,-3 -3,-4 -2,-1 -3,-2 -5,-4 -2,-2 -5,-4 -9,-5l0 0c0,-1 0,-1 0,-1 -2,-2 -3,-3 -4,-5 0,-1 0,-2 -1,-3l0 -1c0,-1 0,-2 0,-3 1,1 3,1 3,0 1,0 2,-1 1,-4l0 0c-1,-1 -1,-2 -3,-3 -4,-2 -7,-5 -9,-9 0,-1 0,-2 -1,-2 -1,-3 -2,-5 -4,-7 -2,-5 -5,-9 -8,-13l-1 -1c-1,-1 -1,-3 -2,-5 -2,-2 -3,-5 -3,-7 -1,-2 -1,-4 -3,-6l-1 0 1 -1 0 0c0,-1 0,-2 0,-3 2,1 5,1 6,0 1,-1 3,-2 3,-6 0,-5 1,-10 2,-15l1 -2c2,-7 0,-13 -5,-20 0,-5 -3,-9 -5,-12l0 0c0,-1 0,-2 -1,-2 0,-1 -1,-1 -2,-1l0 0c-2,0 -3,0 -4,1 -3,2 -5,2 -7,1 -3,-2 -6,-1 -8,0 0,1 -1,1 -1,1 -1,1 -1,1 -1,1 -2,-2 -4,-2 -5,-3 -2,-1 -3,-2 -4,-3 -1,-1 -1,-1 -2,-1 -1,0 -2,0 -3,0 -1,2 -2,1 -4,0 -1,0 -1,0 -2,0 -1,-1 -3,-1 -5,-1 -6,2 -12,5 -18,9 0,0 0,1 -1,1 -2,2 -4,4 -7,3 -3,-3 -6,-3 -9,-3 0,0 -1,0 -2,0 -1,0 -2,0 -3,-1 -1,-1 -3,-1 -5,-1 -1,-1 -3,-1 -4,-2 -3,-2 -7,-2 -11,-2 -2,-1 -3,-1 -5,-1 -4,-2 -8,0 -11,1 -2,0 -2,0 -2,-1 -3,-7 -5,-8 -12,-6 -2,0 -4,0 -5,-1 -2,-2 -5,-2 -7,-2 -3,0 -4,-1 -4,-3l0 -1c0,-1 0,-3 -2,-3 -2,-1 -4,-1 -5,-2 -2,0 -4,-1 -6,-1 -5,-1 -10,-1 -15,1 -5,1 -10,3 -15,7 -6,4 -8,12 -4,18 1,3 1,4 -1,7 -6,7 -10,8 -16,4l0 -1c-3,-2 -6,-4 -9,-5 -6,-3 -13,-6 -21,-6 -8,0 -12,-4 -13,-13 -1,-2 -1,-6 -7,-6 -1,0 -2,0 -3,-1 0,0 -1,0 -1,0 -2,0 -3,-1 -5,-2 -2,-2 -4,-3 -7,-3 -1,0 -2,-1 -4,-1 -3,-1 -6,-2 -9,0 -3,1 -6,1 -9,-2 -3,-1 -5,-2 -8,-3 0,0 0,0 -1,0 -2,0 -4,-1 -4,-2 0,-1 0,-2 -1,-3 0,-2 0,-3 0,-4 -1,-2 -2,-4 -4,-4l0 0c-1,0 -4,0 -4,3l0 1 -1 0c-2,0 -3,-1 -4,-4 0,0 0,-1 2,-2 4,-2 8,-6 11,-10 2,-3 3,-6 2,-9 -1,-3 -1,-6 -5,-8 -1,0 -1,-1 -2,-2 0,-2 1,-2 1,-2 2,-1 4,-3 5,-5 1,0 1,-1 2,-2 2,-1 2,-3 1,-6 0,-2 -2,-3 -3,-3 -1,0 -1,0 -2,-1 0,0 -2,0 -3,0 0,1 -1,3 0,4l0 0c-1,0 -2,0 -2,1 0,0 -1,-1 -1,-1 0,-1 0,-1 0,-2l0 0c0,-1 0,-3 -2,-4 -5,-1 -11,-3 -17,2 -2,2 -5,2 -8,2 -2,0 -4,0 -6,1 0,-1 -1,-1 -1,-1 -1,-1 -3,-2 -4,-2 0,0 0,0 -1,-1 0,0 -2,-1 -4,0 -1,1 -1,1 -2,2l0 0 0 0 -1 0c0,0 0,0 -1,0 0,0 -1,0 -1,0 -2,-3 -4,-3 -6,-2l0 -1 -2 2 0 0c-1,0 -1,0 -2,1 -1,0 -1,1 -2,1 -1,0 -3,0 -4,0 0,0 -2,0 -3,2 0,0 -1,0 -1,0l-1 0c0,-1 0,-1 -1,-1 0,-1 0,-1 -1,-2 -1,0 -2,0 -3,0 -4,-1 -10,-2 -16,-1 0,0 -1,0 -1,0 -2,1 -4,1 -6,1 -2,-1 -4,-2 -6,1l0 0 -1 1 0 0c-4,-1 -7,-1 -10,0 -3,0 -6,0 -8,0l0 0c-2,0 -3,-1 -5,1 0,0 -1,0 -1,1 -1,0 -1,0 -1,0 -1,0 -3,0 -4,1l0 0c-1,0 -2,1 -3,1 -1,0 -1,1 -2,1 0,0 -1,1 -2,1 0,1 -1,2 -1,2l0 1c-1,0 -1,0 -1,0 -1,-1 -3,-1 -4,-1l0 0c-1,0 -2,1 -3,2 -1,0 -1,0 -2,0l-1 0 0 0c-1,0 -3,0 -4,1l0 1c-1,0 -2,0 -3,1 0,1 -1,1 -1,2l0 0 -1 1 0 0c-1,0 -3,0 -3,1l-1 0c0,0 -1,1 -1,1 -2,1 -3,0 -5,0 -1,0 -2,0 -4,0 -3,0 -3,-1 -4,-3 0,-2 -1,-3 -2,-3 -1,0 -2,1 -3,2 0,1 -1,1 -2,1 0,0 -1,0 -1,0 -2,-1 -3,-1 -5,-1l0 0c-1,0 -3,0 -4,0 -3,1 -6,1 -8,0l-1 -2c-2,-1 -3,-2 -4,-4 0,0 0,-1 0,-1 0,-2 0,-4 -3,-5 -1,0 -3,0 -4,0 -1,1 -2,1 -3,1 -2,-1 -2,0 -3,1 -1,4 -3,7 -5,11 -2,2 -4,5 -5,7 -2,2 -4,4 -5,7 -1,0 -1,0 -1,1 -1,0 -2,1 -3,2 -2,0 -4,1 -5,2 -1,0 -1,0 -2,1 -2,0 -4,1 -5,1 -6,2 -11,3 -16,8 0,1 -1,2 -3,3 -2,1 -4,3 -5,6l0 1c-1,1 -1,3 -2,4l-5 6c-4,3 -5,6 -5,10 0,1 -1,2 -1,3l0 1c-1,2 -1,4 1,7 0,1 0,3 -1,4 -1,1 -2,3 -3,4 -4,6 -9,11 -15,14 -1,0 -1,0 -1,0 -2,1 -4,1 -5,3 -5,5 -12,8 -20,8 -1,0 -1,0 -2,0 -3,0 -7,0 -8,4l-2 2c-4,4 -6,10 -8,14 -1,0 -2,1 -2,1 -2,1 -4,2 -6,2 0,1 0,1 -1,1 -3,1 -6,2 -7,7 0,0 -1,0 -1,1 0,0 -1,0 -1,1 0,1 -1,2 -2,4 -2,3 -4,6 -4,11 0,2 -2,4 -4,5 -3,2 -5,4 -7,5 -2,2 -4,4 -6,5l-2 2c-1,0 -1,1 -2,3 0,2 -1,4 -2,6 -1,2 -3,3 -3,5 -1,1 -2,2 -2,3l0 1c-1,1 -2,2 -2,3 -1,0 -1,1 -1,1l0 1 0 0c-4,-1 -5,2 -6,3l0 1c-3,4 -4,9 -6,14 0,1 -1,3 -1,4 0,0 0,0 0,1 -1,1 -1,2 -1,4 1,0 1,1 2,1 2,0 3,0 3,0l1 -1c0,2 1,5 3,5 0,0 1,1 1,2 0,0 0,0 1,1 0,0 0,0 0,1 0,1 0,1 0,2 0,1 0,1 -1,2 -1,0 -2,1 -2,3 -1,1 -1,2 -1,3 0,1 0,1 0,1 -3,4 -1,6 0,7 0,1 0,1 1,2 0,1 0,1 1,2 0,2 0,4 0,6 1,3 1,6 1,8 -1,2 -2,4 -2,6 0,1 0,2 0,3l0 0c-2,2 -3,4 -4,7 0,0 -1,0 -1,1 0,1 0,1 0,2 -1,1 -2,1 -2,2 -1,1 -1,2 -1,3 0,1 0,2 0,2 -1,1 -2,3 -2,4 -1,9 -5,16 -14,21l0 0c-2,0 -3,1 -3,3 0,1 1,2 2,2 0,1 1,1 2,1 1,0 1,0 1,2 1,1 2,2 2,4 2,2 3,4 2,6l0 2 1 0 1 0 0 0c0,1 -1,2 0,2 -1,0 -2,1 -2,1 -1,0 -1,1 -1,2l0 0c0,0 0,1 0,1l0 1c0,3 0,6 -1,9 0,3 -1,9 5,12l0 1 0 0c1,2 1,4 2,5 0,0 -1,0 -2,0 -1,1 -1,2 -1,3 -1,0 0,1 0,1 -1,1 -2,2 -2,3 0,1 1,2 3,3l0 0c0,0 1,0 1,0 0,1 0,2 1,3 1,1 3,1 4,1l1 0c1,-1 2,-1 3,-2 1,0 1,-1 2,-1 1,0 2,0 2,-1 1,2 2,3 3,4 1,1 2,2 2,3 0,0 1,1 2,1 1,1 2,0 3,-1l0 0c0,2 1,3 0,5 0,0 0,1 1,1 1,1 1,2 2,3 1,1 3,3 5,4 2,1 3,2 4,4 1,0 2,1 2,1l0 1 0 0c0,0 -1,0 -2,1 0,0 0,1 0,2l0 2 2 -1c3,0 3,1 5,4 0,0 0,1 0,1 1,1 1,3 1,4 0,1 0,3 0,4 0,1 -1,1 -1,1 0,2 0,3 1,4 0,0 1,1 0,3l-2 3 4 -1c2,-1 2,-1 3,-1 0,0 0,1 -1,2 0,1 0,2 1,2 -1,0 -1,0 -2,1l-1 0 0 2c0,1 1,3 3,3 2,0 3,1 5,2 1,1 2,2 3,2 1,0 2,1 3,1 4,1 7,3 9,5 3,4 6,7 10,9 0,2 2,4 5,4 3,1 4,2 6,4 1,1 1,1 2,2 2,2 4,4 6,6 2,2 5,5 8,7 4,3 9,6 14,8 3,1 5,2 8,4 2,1 4,1 7,0 1,-1 2,-1 2,-2 4,-1 7,-3 10,-4 2,0 4,-1 6,-2 2,-1 4,-2 6,-2 5,-1 10,-2 15,-2 3,0 5,-1 8,-1 5,0 10,1 15,2 1,0 2,0 4,1 1,0 2,0 3,0 3,0 6,1 8,3 2,2 4,1 6,1l1 0c1,0 3,-1 4,-2 1,-1 2,-2 3,-2 5,-1 11,-2 16,-5l0 0c6,-4 12,-7 18,-6 5,1 6,-2 6,-4 0,-1 1,-1 1,-1 2,-1 4,-1 6,-2 2,0 3,-1 5,-1l2 0c9,-1 20,-2 30,-1 4,0 7,1 10,4 5,5 8,11 11,19 2,6 6,9 11,10 4,1 8,0 12,-1 2,0 5,0 7,-1 2,0 4,0 5,-1 2,0 4,0 5,0 1,0 1,0 1,0 2,0 4,0 6,-1 0,0 0,1 1,1 1,1 2,1 4,0l0 0c0,1 1,1 1,2 0,2 1,4 3,5 2,1 4,2 7,2 0,2 1,5 3,7 2,1 2,3 2,5 -2,6 -2,11 -2,15 0,1 0,2 -1,3 0,1 -1,2 -2,3 -1,1 -2,3 -3,4l0 1c-1,1 -2,2 -1,4 1,1 2,2 3,2 0,1 0,2 0,2 -1,0 -3,1 -3,3 -1,2 0,3 0,5l0 0 0 1c0,1 0,1 0,2 0,1 0,2 0,2 -1,4 -2,7 -3,7 -1,1 -3,1 -5,1l-1 -1 -1 2c0,1 0,4 1,6 3,3 5,8 7,12 2,5 5,9 9,13l0 2c2,2 5,4 7,6 2,1 4,3 5,4 3,3 5,6 8,8 3,4 6,7 9,11 1,1 2,3 3,5 1,1 2,3 3,4 1,2 2,3 2,5l0 0c0,1 -2,3 0,4 2,2 2,4 3,6 0,2 0,3 0,4 1,2 3,4 4,5 1,2 2,3 3,5l0 2c3,7 5,13 9,20 0,0 1,2 0,3 -2,1 -4,3 -5,7 0,2 1,4 2,6l0 0c1,6 4,12 7,16 3,4 4,7 3,11 0,1 0,1 0,1 0,2 0,3 0,5 0,7 -2,10 -8,14 -4,3 -4,4 -4,5 0,2 -1,3 -2,4 -1,1 -2,2 -3,2l0 0c-1,1 -2,2 -2,3 1,2 0,3 0,5 -1,1 -2,3 -2,4 1,5 -1,9 -2,13 -1,3 -2,6 -2,10l0 0c0,1 -1,2 -1,2 -4,2 -4,5 -3,7 0,0 0,0 0,1 0,0 0,1 0,2 1,1 1,2 1,2 -4,2 -2,5 -2,6l0 0c2,4 1,7 1,10 -1,1 -1,3 0,4 1,6 3,13 9,18 1,1 1,2 2,2l0 0c4,7 7,13 10,20 3,5 5,10 8,15 1,1 1,2 2,3 2,3 4,7 7,10l1 1c3,4 6,8 4,14 -1,1 -1,2 0,3l0 1c0,0 0,1 0,2 1,2 1,5 1,6 -2,5 0,9 2,13 0,0 0,1 0,1 2,3 3,5 3,9 0,6 2,13 5,20l0 0c-1,5 1,9 3,13l1 1c4,8 10,15 17,20 0,0 0,1 0,1 4,6 7,12 9,19l1 3c3,8 7,14 11,20 4,4 5,9 5,14 0,1 -1,2 -1,2 0,0 0,0 -1,0 -1,0 -2,0 -3,0 -1,1 -2,3 -2,4l0 1c0,2 1,4 2,5 1,1 2,2 1,3 0,0 0,1 1,1 0,1 1,1 2,1l0 0c1,0 1,1 2,2 0,0 0,1 0,2 -2,3 -1,6 0,8 0,1 1,2 2,3 1,0 2,0 2,0 2,-1 2,-2 2,-2l0 -1c1,2 3,2 5,3l0 0c1,0 1,0 2,1 0,1 1,2 2,3 3,1 5,2 8,2 2,0 5,-1 8,-3 1,-1 7,-2 9,-3 1,0 2,0 4,0 3,0 7,0 10,-3 1,-2 2,-2 4,-2 2,-1 3,0 5,0 2,0 3,1 5,1 1,0 3,-1 4,-1 1,-1 1,-1 2,-1 1,0 2,1 4,1 2,0 5,1 7,2 2,1 4,1 5,1 1,-1 2,-1 2,-2 1,-2 2,-2 5,-1 1,1 2,1 3,1 1,0 1,-1 1,0 1,0 2,-1 2,-1 1,-1 1,-2 1,-2 0,-2 1,-2 1,-3 0,0 1,0 1,0 7,3 12,0 16,-2l1 -1c5,-2 9,-5 13,-8 1,-2 3,-3 5,-4l0 0c4,-3 9,-7 12,-11 2,-2 3,-4 5,-5 8,-5 14,-12 19,-20 0,-1 1,-1 1,-2 1,-2 2,-4 3,-5 2,-4 4,-7 7,-9 1,-1 1,-1 2,-2 1,-1 3,-3 5,-4 5,-2 9,-6 10,-13 1,-3 2,-6 3,-9 2,-4 4,-9 4,-14 0,-1 0,-3 0,-4 1,-2 1,-5 0,-8l0 -2c1,-2 2,-2 4,-3 6,-4 14,-6 22,-8l0 -1c5,-1 9,-4 11,-7 0,-1 1,-1 1,-2 1,-1 3,-3 2,-6 -1,-5 1,-10 3,-14 0,0 1,-2 0,-4 -2,-1 -1,-1 -1,-4 1,0 1,-1 1,-1 0,-2 1,-5 -3,-6l0 -1c4,-1 3,-4 3,-5 0,-1 0,-1 0,-1l0 -1c1,-2 0,-3 -2,-4 -1,0 -2,0 -3,1 -1,-2 -2,-3 -1,-5 1,-3 0,-7 -2,-8 -2,-2 -2,-3 -2,-5l0 -1c1,-3 1,-4 4,-5 4,-1 6,-5 9,-8l0 0c2,-3 4,-4 5,-4 4,0 6,-3 8,-5 1,0 1,-1 1,-1l1 -1c5,-6 10,-11 17,-15 1,0 1,-1 2,-1 2,-1 4,-2 6,-3l2 0c5,-1 10,-3 15,-6 5,-3 9,-7 13,-11l1 -1c5,-5 10,-10 11,-17 1,-1 1,-2 1,-2 1,-1 1,-2 1,-4 1,-3 -1,-6 -2,-8 -1,-3 -2,-5 -1,-7 0,-1 0,-1 0,-2 0,-2 0,-3 0,-5 0,-2 0,-3 -1,-5 2,-1 3,-3 3,-5 0,-3 -1,-6 -1,-9 -1,-4 -1,-7 -1,-10 0,-1 0,-1 0,-1l0 0 0 0 0 0c1,0 2,0 3,-1 0,0 1,-1 1,-2l0 -1c0,-1 0,-3 -2,-4l-1 0 1 0 0 -1c0,-7 -1,-10 -7,-12 -2,-1 -3,-2 -4,-5 -1,-2 -1,-4 -2,-6 0,-4 -1,-8 -3,-11 -2,-3 -2,-6 0,-8 1,-2 1,-6 0,-8 -2,-2 -1,-3 1,-6 1,-2 2,-4 1,-6 0,-1 -2,-2 -3,-3 -1,0 -1,0 -1,-1 0,-2 -2,-4 -4,-5 -2,0 -2,-1 -2,-2 0,-1 0,-2 0,-2 0,-1 0,-2 0,-3l1 -1c1,-4 3,-7 4,-10 1,-3 2,-6 4,-8 1,-1 2,-3 3,-5l1 0c1,-2 1,-5 2,-7 1,-2 2,-4 3,-6l1 0c2,-4 4,-7 3,-12 0,-1 1,-1 2,-2 7,-1 8,-2 9,-8 0,-1 0,-1 0,-1 5,1 7,-2 9,-5 1,0 1,-1 2,-1 1,-2 3,-5 4,-7 1,-2 2,-3 3,-4 2,-3 4,-6 7,-8 1,-1 2,-2 3,-3 1,-2 3,-4 5,-5 4,-6 9,-11 15,-16l1 -1c6,-4 11,-9 17,-12l1 -1c5,-2 9,-5 13,-9 1,-1 3,-3 4,-4 11,-11 22,-23 30,-37 1,-2 2,-4 4,-6 3,-6 7,-12 8,-19 1,-5 4,-9 7,-13 1,-2 2,-4 3,-6 0,-3 1,-5 3,-7 3,-2 4,-6 5,-9 1,-2 1,-4 3,-6 3,-5 3,-10 3,-15 0,-1 0,-3 0,-4 0,-1 0,-1 1,-2 0,0 1,0 1,0 1,0 1,0 1,0l1 0c0,0 1,0 2,0 1,-1 1,-2 1,-2l0 -1c0,0 0,-1 -1,-2z"/>
  <polygon class="fil1" points="5335,5380 5312,5380 5312,5743 5335,5743 "/>
 </g>
</svg>
