<?xml version="1.0" encoding="UTF-8"?>
<!DOCTYPE svg PUBLIC "-//W3C//DTD SVG 1.1//EN" "http://www.w3.org/Graphics/SVG/1.1/DTD/svg11.dtd">
<!-- Creator: CorelDRAW X7 -->
<svg xmlns="http://www.w3.org/2000/svg" xml:space="preserve" width="100%" version="1.1" style="shape-rendering:geometricPrecision; text-rendering:geometricPrecision; image-rendering:optimizeQuality; fill-rule:evenodd; clip-rule:evenodd"
viewBox="0 0 6667 6667"
 xmlns:xlink="http://www.w3.org/1999/xlink">
 <defs>
  <style type="text/css">
   <![CDATA[
    .fil0 {fill:#FF5409}
   ]]>
  </style>
 </defs>
 <g id="Layer_x0020_1">
  <metadata id="CorelCorpID_0Corel-Layer"/>
  <g id="_1930131798992">
   <path class="fil0" d="M2022 2912l-39 156c-480,141 -1430,361 -1682,663 -287,342 -374,886 -81,1293 95,130 173,252 269,324 504,383 918,627 1639,705 1172,127 1374,-186 1978,-326 -81,-219 -3,20 -179,-255 -64,-100 -104,-147 -155,-270 -238,-578 -124,-1216 271,-1688 39,-47 65,-56 110,-118 -164,-152 -752,-266 -1015,-329l-50 -153c70,-57 58,-32 138,-81 167,-104 286,-238 386,-412 159,-278 221,-549 140,-895 -288,-1224 -2069,-1283 -2377,-16 -124,507 74,1030 496,1306 52,35 114,70 151,96z"/>
   <path class="fil0" d="M4932 3223c-331,71 -499,181 -679,370 -327,342 -478,812 -362,1318 259,1130 1848,1447 2491,445 715,-1115 -236,-2392 -1450,-2133zm47 1731c-160,-118 -370,-474 -494,-603 -85,37 -2,-3 -63,38 -11,7 -69,48 -79,56 -69,53 -41,20 -110,105l611 795c132,110 221,62 325,-76 34,-46 31,-49 68,-97 124,-161 -85,105 29,-36l592 -761c97,-123 211,-243 300,-359 -36,-85 -158,-182 -232,-238l-458 567c-43,51 -77,90 -115,148l-288 372c-38,42 -44,39 -86,89z"/>
  </g>
 </g>
</svg>
