<?xml version="1.0" encoding="UTF-8"?>
<!DOCTYPE svg PUBLIC "-//W3C//DTD SVG 1.1//EN" "http://www.w3.org/Graphics/SVG/1.1/DTD/svg11.dtd">
<!-- Creator: CorelDRAW X7 -->
<svg xmlns="http://www.w3.org/2000/svg" xml:space="preserve" width="100%" version="1.1" style="shape-rendering:geometricPrecision; text-rendering:geometricPrecision; image-rendering:optimizeQuality; fill-rule:evenodd; clip-rule:evenodd"
viewBox="0 0 6667 6667"
 xmlns:xlink="http://www.w3.org/1999/xlink">
 <defs>
  <style type="text/css">
   <![CDATA[
    .fil0 {fill:#FF5409}
   ]]>
  </style>
 </defs>
 <g id="Layer_x0020_1">
  <metadata id="CorelCorpID_0Corel-Layer"/>
  <g id="_1930131806704">
   <path class="fil0" d="M4866 2954c-30,195 -105,387 -202,513 -63,82 -250,284 -402,305 -332,44 -88,-919 20,-1051l73 -172c40,-113 124,-200 164,-287 -85,-53 -229,-37 -329,-12l-125 58c-162,87 -178,165 -275,308 -17,76 -52,142 -75,221 -63,175 -81,396 -139,576 -31,95 -76,172 -127,240 -31,42 -133,136 -183,175l-177 131c-61,37 -113,88 -169,131 -469,353 -397,978 -404,1435l1637 0c2,-233 15,-404 88,-611 106,-299 286,-393 445,-574 105,-119 211,-243 298,-382 248,-398 385,-846 320,-1358 -34,-269 -172,-645 -333,-857 -21,-28 -64,-59 -75,-84 -66,-29 -112,-65 -206,-59 -188,12 -156,207 -93,320 185,326 302,612 269,1034z"/>
   <path class="fil0" d="M1671 3958c54,86 132,158 181,233 95,144 261,244 373,376 57,68 172,130 266,36 180,-184 -239,-405 -486,-730 -401,-528 -438,-1252 -102,-1846 100,-176 370,-476 552,-556 213,-176 667,-269 977,-253 329,18 647,140 901,326 193,142 346,-43 262,-196 -31,-56 -269,-198 -367,-248 -622,-313 -1385,-272 -1968,108 -227,148 -305,228 -486,442 -376,443 -506,1089 -376,1676 49,217 153,445 273,632z"/>
   <path class="fil0" d="M4190 2250c100,-25 244,-41 329,12 -40,87 -124,174 -164,287 95,252 132,464 104,770 -26,-67 -44,-229 -68,-316 -28,-95 -49,-217 -109,-282 -108,132 -352,1095 -20,1051 152,-21 339,-223 402,-305 97,-126 172,-318 202,-513 -23,-57 -23,-129 -36,-193 -85,-430 -286,-750 -563,-1060 -368,-413 -509,-84 -488,30 15,84 155,204 214,258 39,36 173,202 197,261z"/>
   <path class="fil0" d="M2544 6011c-147,42 -125,256 25,278 123,17 385,2 523,2 154,0 959,17 1039,-9 137,-43 125,-263 -33,-278 -147,-14 -1523,-3 -1554,7z"/>
   <path class="fil0" d="M2555 5630c-158,38 -150,253 3,279l1563 -2c145,-34 144,-254 -12,-281 -104,-19 -397,-4 -520,-4 -194,0 -903,-25 -1034,8z"/>
   <path class="fil0" d="M3266 3828c50,-39 152,-133 183,-175 51,-68 96,-145 127,-240 58,-180 76,-401 139,-576 -109,-154 -200,-319 -353,-439 -95,-75 -218,-49 -276,42 -85,133 32,227 88,277 109,98 255,289 287,508 43,291 -103,437 -195,603z"/>
   <path class="fil0" d="M3300 2079c67,118 124,132 246,252l244 285c97,-143 113,-221 275,-308 -43,-25 -218,-260 -370,-374 -64,-48 -130,-137 -260,-101 -106,29 -147,122 -135,246z"/>
   <path class="fil0" d="M2953 6378c-85,23 -148,93 -115,189 36,102 133,95 241,94 128,-1 560,17 652,-6 81,-19 137,-111 96,-198 -43,-89 -129,-84 -238,-84 -112,-1 -566,-14 -636,5z"/>
   <path class="fil0" d="M6254 2916c32,-152 -135,-104 -259,-106 -75,-2 -306,-23 -334,36 -64,133 178,99 255,99 116,0 260,14 338,-29z"/>
   <path class="fil0" d="M5092 1337c4,55 22,88 87,73 53,-13 60,-54 117,-75 41,-85 371,-245 282,-341 -61,-65 -208,91 -259,134 -49,42 -200,151 -227,209z"/>
   <path class="fil0" d="M596 1857c-95,101 161,155 225,179 65,25 272,121 318,78 106,-100 -154,-161 -214,-184 -57,-21 -282,-124 -329,-73z"/>
   <path class="fil0" d="M1106 994c-96,70 30,125 161,243 81,71 216,210 283,163 100,-72 -123,-199 -229,-295 -23,-20 -42,-33 -65,-54 -41,-36 -91,-102 -150,-57z"/>
   <path class="fil0" d="M5128 4348c-113,61 65,174 146,242 81,68 226,205 283,179 133,-61 -169,-262 -279,-352 -35,-29 -91,-101 -150,-69z"/>
   <path class="fil0" d="M413 2916c66,43 491,44 589,15 18,-73 25,-113 -67,-121l-420 -2c-87,3 -119,15 -102,108z"/>
   <path class="fil0" d="M1875 347c-90,44 17,172 89,297 37,63 119,268 204,237 104,-37 -51,-240 -86,-302 -74,-128 -130,-270 -207,-232z"/>
   <path class="fil0" d="M1089 4760c79,32 108,-3 154,-45l255 -216c29,-23 122,-74 58,-138 -62,-62 -177,60 -274,144 -162,138 -232,152 -193,255z"/>
   <path class="fil0" d="M6079 3903c27,-113 -4,-106 -232,-186 -65,-22 -285,-126 -326,-71 -76,103 150,149 231,180 91,35 238,108 327,77z"/>
   <path class="fil0" d="M3854 0l-45 0c-65,56 -59,140 -85,284 -15,92 -59,230 -25,310 127,24 116,-39 152,-255 10,-61 20,-114 32,-177 16,-91 29,-107 -29,-162z"/>
   <path class="fil0" d="M4736 346c-30,14 -150,235 -179,283 -23,38 -65,105 -83,141 -28,58 6,145 81,106 26,-13 223,-349 261,-422 39,-75 -16,-136 -80,-108z"/>
   <path class="fil0" d="M5969 1852c-113,41 -215,74 -322,114 -53,20 -120,34 -134,79 -55,178 307,2 430,-43 45,-17 123,-34 139,-74 38,-88 -49,-100 -113,-76z"/>
   <path class="fil0" d="M629 3916c57,3 224,-66 286,-90 50,-19 91,-34 144,-53 66,-24 103,-29 97,-107l-17 -37c-82,-7 -411,113 -510,158 -66,30 -74,103 0,129z"/>
   <path class="fil0" d="M4477 4890c-53,51 89,247 121,299 32,54 120,292 213,205 61,-57 -78,-233 -113,-292 -64,-107 -134,-297 -221,-212z"/>
   <path class="fil0" d="M2860 0l-46 0c-74,60 -29,161 3,339 34,193 21,284 151,254 31,-65 -40,-533 -108,-593z"/>
   <path class="fil0" d="M2100 4893l-252 414c-30,77 28,133 93,93 25,-15 145,-238 168,-277 51,-84 135,-180 82,-234 -50,-50 -90,3 -91,4z"/>
  </g>
 </g>
</svg>
